<?xml version="1.0" encoding="UTF-8"?>
<svg id="Layer_1" data-name="Layer 1" xmlns="http://www.w3.org/2000/svg" width="128" height="128" viewBox="0 0 128 128">
  <path d="m64,114.7c28,0,50.7-22.7,50.7-50.7S92,13.3,64,13.3,13.3,36,13.3,64s22.7,50.7,50.7,50.7Zm0-96.6c25.3,0,45.9,20.6,45.9,45.9s-20.6,45.9-45.9,45.9-45.9-20.6-45.9-45.9S38.7,18.1,64,18.1Z"/>
  <path d="m39.9,66.4h42.4l-15.2,15.2c-.9.9-.9,2.5,0,3.4s2.5.9,3.4,0l19.4-19.3c.2-.2.4-.5.5-.8.2-.6.2-1.3,0-1.8-.1-.3-.3-.6-.5-.8l-19.4-19.3c-.5-.5-1.1-.7-1.7-.7s-1.2.2-1.7.7c-.9.9-.9,2.5,0,3.4l15.2,15.2h-42.5c-1.3,0-2.4,1.1-2.4,2.4s1.1,2.4,2.5,2.4Z"/>
</svg>